<svg height="476pt" viewBox="0 -90 476 476" width="476pt" xmlns="http://www.w3.org/2000/svg"><path d="m200 192c0 53.019531-42.980469 96-96 96s-96-42.980469-96-96 42.980469-96 96-96 96 42.980469 96 96zm0 0" fill="#f9f9f9"/><path d="m468 192c0 53.019531-42.980469 96-96 96s-96-42.980469-96-96 42.980469-96 96-96 96 42.980469 96 96zm0 0" fill="#f9f9f9"/><path d="m45.414062 174.183594c-2.691406-.007813-5.203124-1.371094-6.675781-3.625-1.472656-2.257813-1.710937-5.105469-.632812-7.574219 2.375-5.398437 5.410156-10.488281 9.03125-15.144531 1.730469-2.328125 4.582031-3.535156 7.460937-3.160156 2.875.378906 5.320313 2.28125 6.390625 4.976562 1.074219 2.695312.601563 5.757812-1.226562 8.007812-2.816407 3.613282-5.171875 7.558594-7.019531 11.75-1.28125 2.902344-4.152344 4.773438-7.328126 4.769532zm0 0" fill="#ebebeb"/><path d="m104 264c-37.027344.132812-68.066406-27.945312-71.640625-64.800781-.441406-4.394531 2.765625-8.316407 7.160156-8.757813 4.398438-.441406 8.320313 2.761719 8.761719 7.160156 2.777344 28.664063 26.921875 50.5 55.71875 50.398438 4.417969 0 8 3.582031 8 8s-3.582031 8-8 8zm0 0" fill="#ebebeb"/><path d="m104 296c-57.4375 0-104-46.5625-104-104s46.5625-104 104-104 104 46.5625 104 104c-.066406 57.410156-46.589844 103.933594-104 104zm0-192c-48.601562 0-88 39.398438-88 88s39.398438 88 88 88 88-39.398438 88-88c-.058594-48.578125-39.421875-87.941406-88-88zm0 0" fill="#ee8427"/><path d="m372 296c-57.4375 0-104-46.5625-104-104s46.5625-104 104-104 104 46.5625 104 104c-.066406 57.410156-46.589844 103.933594-104 104zm0-192c-48.601562 0-88 39.398438-88 88s39.398438 88 88 88 88-39.398438 88-88c-.058594-48.578125-39.421875-87.941406-88-88zm0 0" fill="#ee8427"/><path d="m439.640625 193.046875c-4.105469-.003906-7.542969-3.113281-7.953125-7.199219-3.0625-30.640625-28.894531-53.945312-59.6875-53.847656-4.417969 0-8-3.582031-8-8s3.582031-8 8-8c39.015625-.121094 71.742188 29.414062 75.609375 68.238281.222656 2.117188-.40625 4.234375-1.746094 5.886719-1.339843 1.648438-3.285156 2.699219-5.398437 2.914062-.289063-.007812-.5625.007813-.824219.007813zm0 0" fill="#ebebeb"/><path d="m426.550781 240.59375c-3.027343 0-5.800781-1.714844-7.152343-4.425781-1.355469-2.707031-1.066407-5.953125.753906-8.375 2.890625-3.871094 5.308594-8.074219 7.199218-12.519531 1.054688-2.71875 3.503907-4.644532 6.390626-5.035157 2.886718-.386719 5.753906.824219 7.492187 3.164063 1.734375 2.335937 2.0625 5.433594.855469 8.085937-2.378906 5.632813-5.425782 10.960938-9.082032 15.863281-1.515624 2.046876-3.910156 3.25-6.457031 3.242188zm0 0" fill="#ebebeb"/><path d="m235.625 208.28125-119.199219-8.511719-22.929687-22.96875 82.007812-112.335937 160.496094-8.921875v27.265625zm-112.082031-24.050781 104.800781 7.488281 91.65625-114.527344v-4.734375l-136 7.542969-69.503906 95.199219zm0 0" fill="#fbedbf"/><path d="m232 208c-3.25 0-6.179688-1.964844-7.40625-4.976562l-72-176c-1.671875-4.089844.289062-8.761719 4.382812-10.429688 4.089844-1.671875 8.761719.289062 10.429688 4.382812l72 176c1.652344 4.078126-.304688 8.726563-4.375 10.398438-.960938.402344-1.988281.613281-3.03125.625zm0 0" fill="#fbedbf"/><path d="m131.3125 0h67.289062c4.03125 0 7.816407 1.9375 10.171876 5.207031 2.359374 3.269531 3 7.472657 1.722656 11.296875-1.523438 4.582032-5.546875 7.878906-10.335938 8.480469l-41.839844 5.222656c-9.035156 1.128907-18.089843-1.976562-24.527343-8.414062l-8.136719-8.136719c-2.289062-2.289062-2.972656-5.730469-1.734375-8.71875s4.15625-4.9375 7.390625-4.9375zm0 0" fill="#ee8427"/><path d="m368 80c-4.035156-.007812-7.433594-3.023438-7.925781-7.027344-.488281-4.007812 2.082031-7.75 5.996093-8.734375l18.402344-4.597656c4.882813-1.21875 8.09375-5.886719 7.484375-10.882813-.613281-4.996093-4.851562-8.753906-9.886719-8.757812h-55.125l7.710938 11.558594c2.453125 3.675781 1.460938 8.644531-2.214844 11.097656-3.675781 2.453125-8.644531 1.460938-11.097656-2.214844l-16-24c-1.636719-2.457031-1.789062-5.613281-.398438-8.214844 1.390626-2.601562 4.105469-4.226562 7.054688-4.226562h70.03125c13.175781-.082031 24.324219 9.71875 25.933594 22.796875s-6.832032 25.289063-19.636719 28.402344l-18.398437 4.59375c-.632813.148437-1.28125.21875-1.929688.207031zm0 0" fill="#fbb540"/><path d="m372 192c-2.308594.003906-4.503906-.992188-6.023438-2.726562-19.238281-22.023438-32.652343-48.511719-39.015624-77.050782l-6.777344-30.488281c-.121094-.570313-.183594-1.152344-.183594-1.734375v-24c0-4.417969 3.582031-8 8-8s8 3.582031 8 8v23.121094l6.585938 29.597656c5.773437 25.921875 17.960937 49.976562 35.4375 69.96875 2.097656 2.359375 2.609374 5.734375 1.308593 8.609375-1.304687 2.878906-4.175781 4.71875-7.332031 4.703125zm0 0" fill="#fbedbf"/><path d="m104 216c-13.253906 0-24-10.746094-24-24s10.746094-24 24-24 24 10.746094 24 24-10.746094 24-24 24zm0 0" fill="#c3c3c3"/><path d="m372 216c-13.253906 0-24-10.746094-24-24s10.746094-24 24-24 24 10.746094 24 24-10.746094 24-24 24zm0 0" fill="#c3c3c3"/><path d="m216 240c-17.671875 0-32-14.328125-32-32s14.328125-32 32-32 32 14.328125 32 32-14.328125 32-32 32zm0 0" fill="#fbb540"/><g fill="#9c9c9c"><path d="m256 264h-16c-2.808594 0-5.410156-1.472656-6.855469-3.878906l-24-40c-2.179687-3.78125-.929687-8.609375 2.808594-10.855469s8.589844-1.082031 10.902344 2.613281l21.671875 36.121094h11.472656c4.417969 0 8 3.582031 8 8s-3.582031 8-8 8zm0 0"/><path d="m382.03125 24h-26.03125v16h26.03125c5.035156.003906 9.273438 3.761719 9.882812 8.757812.613282 4.996094-2.597656 9.664063-7.480468 10.882813l-18.402344 4.597656c-3.921875.984375-6.492188 4.742188-5.992188 8.753907.5 4.011718 3.917969 7.019531 7.960938 7.007812.65625.003906 1.308594-.078125 1.945312-.238281l18.398438-4.59375c12.804688-3.113281 21.246094-15.324219 19.636719-28.402344s-12.757813-22.878906-25.933594-22.796875zm0 0"/></g></svg>